HIERARCHY
ROOT Hips
{
    OFFSET   0.000000   0.000000   0.000000
    CHANNELS 6 Xposition Yposition Zposition Zrotation Xrotation Yrotation
    JOINT Chest
    {
        OFFSET   0.000000   8.007230   0.000000
        CHANNELS 3 Zrotation Xrotation Yrotation
        JOINT Chest2
        {
            OFFSET   0.000000  22.077100   0.000000
            CHANNELS 3 Zrotation Xrotation Yrotation
            JOINT Neck
            {
                OFFSET   0.000000  23.254800  -0.000021
                CHANNELS 3 Zrotation Xrotation Yrotation
                JOINT Head
                {
                    OFFSET   0.000000  14.370000   1.956610
                    CHANNELS 3 Zrotation Xrotation Yrotation
                    End Site
                    {
                        OFFSET   0.000000  19.566000   0.000000
                    }
                }
            }
            JOINT LeftCollar
            {
                OFFSET   3.911900  19.017000  -0.467063
                CHANNELS 3 Zrotation Xrotation Yrotation
                JOINT LeftShoulder
                {
                    OFFSET  10.383700   0.000000   0.000000
                    CHANNELS 3 Zrotation Xrotation Yrotation
                    JOINT LeftElbow
                    {
                        OFFSET  26.662100   0.001529   0.000325
                        CHANNELS 3 Zrotation Xrotation Yrotation
                        JOINT LeftWrist
                        {
                            OFFSET  28.869000  -0.000011  -0.000096
                            CHANNELS 3 Zrotation Xrotation Yrotation
                            JOINT LeftFinger0
                            {
                                OFFSET   2.044650  -2.323460   3.252850
                                CHANNELS 3 Zrotation Xrotation Yrotation
                                JOINT LeftFinger01
                                {
                                    OFFSET   3.088130   0.000000   0.000000
                                    CHANNELS 3 Zrotation Xrotation Yrotation
                                    JOINT LeftFinger02
                                    {
                                        OFFSET   2.639460   0.000000   0.000000
                                        CHANNELS 3 Zrotation Xrotation Yrotation
                                        End Site
                                        {
                                            OFFSET   2.582190   0.000000   0.000000
                                        }
                                    }
                                }
                            }
                            JOINT LeftFinger1
                            {
                                OFFSET   8.364480   0.000000   3.252850
                                CHANNELS 3 Zrotation Xrotation Yrotation
                                JOINT LeftFinger11
                                {
                                    OFFSET   4.646930   0.000000   0.000000
                                    CHANNELS 3 Zrotation Xrotation Yrotation
                                    JOINT LeftFinger12
                                    {
                                        OFFSET   2.323460   0.000000   0.000000
                                        CHANNELS 3 Zrotation Xrotation Yrotation
                                        End Site
                                        {
                                            OFFSET   2.273050   0.000000   0.000000
                                        }
                                    }
                                }
                            }
                            JOINT LeftFinger2
                            {
                                OFFSET   8.364480   0.000016   1.078090
                                CHANNELS 3 Zrotation Xrotation Yrotation
                                JOINT LeftFinger21
                                {
                                    OFFSET   5.111620   0.000000   0.000000
                                    CHANNELS 3 Zrotation Xrotation Yrotation
                                    JOINT LeftFinger22
                                    {
                                        OFFSET   2.788160   0.000017   0.000000
                                        CHANNELS 3 Zrotation Xrotation Yrotation
                                        End Site
                                        {
                                            OFFSET   2.727660   0.000000   0.000000
                                        }
                                    }
                                }
                            }
                            JOINT LeftFinger3
                            {
                                OFFSET   7.899780   0.000015  -1.078090
                                CHANNELS 3 Zrotation Xrotation Yrotation
                                JOINT LeftFinger31
                                {
                                    OFFSET   4.646920   0.000000   0.000000
                                    CHANNELS 3 Zrotation Xrotation Yrotation
                                    JOINT LeftFinger32
                                    {
                                        OFFSET   2.323470   0.000000   0.000000
                                        CHANNELS 3 Zrotation Xrotation Yrotation
                                        End Site
                                        {
                                            OFFSET   2.273050   0.000000   0.000000
                                        }
                                    }
                                }
                            }
                            JOINT LeftFinger4
                            {
                                OFFSET   7.435090   0.000000  -3.252850
                                CHANNELS 3 Zrotation Xrotation Yrotation
                                JOINT LeftFinger41
                                {
                                    OFFSET   3.717550   0.000000   0.000000
                                    CHANNELS 3 Zrotation Xrotation Yrotation
                                    JOINT LeftFinger42
                                    {
                                        OFFSET   1.858760   0.000000   0.000000
                                        CHANNELS 3 Zrotation Xrotation Yrotation
                                        End Site
                                        {
                                            OFFSET   1.818440   0.000000   0.000000
                                        }
                                    }
                                }
                            }
                        }
                    }
                }
            }
            JOINT RightCollar
            {
                OFFSET  -3.911900  19.017000  -0.467062
                CHANNELS 3 Zrotation Xrotation Yrotation
                JOINT RightShoulder
                {
                    OFFSET -10.383700   0.000015   0.000000
                    CHANNELS 3 Zrotation Xrotation Yrotation
                    JOINT RightElbow
                    {
                        OFFSET -26.662100   0.001341   0.000385
                        CHANNELS 3 Zrotation Xrotation Yrotation
                        JOINT RightWrist
                        {
                            OFFSET -28.869000   0.000025  -0.000080
                            CHANNELS 3 Zrotation Xrotation Yrotation
                            JOINT RightFinger0
                            {
                                OFFSET  -2.044650  -2.323490   3.252850
                                CHANNELS 3 Zrotation Xrotation Yrotation
                                JOINT RightFinger01
                                {
                                    OFFSET  -3.088130   0.000000   0.000000
                                    CHANNELS 3 Zrotation Xrotation Yrotation
                                    JOINT RightFinger02
                                    {
                                        OFFSET  -2.639460   0.000000   0.000000
                                        CHANNELS 3 Zrotation Xrotation Yrotation
                                        End Site
                                        {
                                            OFFSET  -2.582190   0.000000   0.000000
                                        }
                                    }
                                }
                            }
                            JOINT RightFinger1
                            {
                                OFFSET  -8.364480   0.000000   3.252850
                                CHANNELS 3 Zrotation Xrotation Yrotation
                                JOINT RightFinger11
                                {
                                    OFFSET  -4.646930   0.000000   0.000000
                                    CHANNELS 3 Zrotation Xrotation Yrotation
                                    JOINT RightFinger12
                                    {
                                        OFFSET  -2.323470   0.000000   0.000000
                                        CHANNELS 3 Zrotation Xrotation Yrotation
                                        End Site
                                        {
                                            OFFSET  -2.273050   0.000000   0.000000
                                        }
                                    }
                                }
                            }
                            JOINT RightFinger2
                            {
                                OFFSET  -8.364480   0.000000   1.078090
                                CHANNELS 3 Zrotation Xrotation Yrotation
                                JOINT RightFinger21
                                {
                                    OFFSET  -5.111610   0.000000   0.000000
                                    CHANNELS 3 Zrotation Xrotation Yrotation
                                    JOINT RightFinger22
                                    {
                                        OFFSET  -2.788160   0.000000   0.000000
                                        CHANNELS 3 Zrotation Xrotation Yrotation
                                        End Site
                                        {
                                            OFFSET  -2.727660   0.000000   0.000000
                                        }
                                    }
                                }
                            }
                            JOINT RightFinger3
                            {
                                OFFSET  -7.899780   0.000000  -1.078090
                                CHANNELS 3 Zrotation Xrotation Yrotation
                                JOINT RightFinger31
                                {
                                    OFFSET  -4.646920   0.000000   0.000000
                                    CHANNELS 3 Zrotation Xrotation Yrotation
                                    JOINT RightFinger32
                                    {
                                        OFFSET  -2.323470   0.000000   0.000000
                                        CHANNELS 3 Zrotation Xrotation Yrotation
                                        End Site
                                        {
                                            OFFSET  -2.273050   0.000000   0.000000
                                        }
                                    }
                                }
                            }
                            JOINT RightFinger4
                            {
                                OFFSET  -7.435090   0.000000  -3.252850
                                CHANNELS 3 Zrotation Xrotation Yrotation
                                JOINT RightFinger41
                                {
                                    OFFSET  -3.717550   0.000000   0.000000
                                    CHANNELS 3 Zrotation Xrotation Yrotation
                                    JOINT RightFinger42
                                    {
                                        OFFSET  -1.858770   0.000000   0.000000
                                        CHANNELS 3 Zrotation Xrotation Yrotation
                                        End Site
                                        {
                                            OFFSET  -1.818440   0.000000   0.000000
                                        }
                                    }
                                }
                            }
                        }
                    }
                }
            }
        }
    }
    JOINT LeftHip
    {
        OFFSET   9.783010   0.000000   0.000000
        CHANNELS 3 Zrotation Xrotation Yrotation
        JOINT LeftKnee
        {
            OFFSET   0.000070 -41.789100   0.000028
            CHANNELS 3 Zrotation Xrotation Yrotation
            JOINT LeftAnkle
            {
                OFFSET   0.000087 -41.133200  -0.000100
                CHANNELS 3 Zrotation Xrotation Yrotation
                JOINT LeftToe
                {
                    OFFSET   0.000000  -6.358960  14.674500
                    CHANNELS 3 Zrotation Xrotation Yrotation
                    End Site
                    {
                        OFFSET   0.000000   0.000000   3.913200
                    }
                }
            }
        }
    }
    JOINT RightHip
    {
        OFFSET  -9.783020   0.000000   0.000000
        CHANNELS 3 Zrotation Xrotation Yrotation
        JOINT RightKnee
        {
            OFFSET   0.000044 -41.789100  -0.000870
            CHANNELS 3 Zrotation Xrotation Yrotation
            JOINT RightAnkle
            {
                OFFSET  -0.000090 -41.133200  -0.000245
                CHANNELS 3 Zrotation Xrotation Yrotation
                JOINT RightToe
                {
                    OFFSET   0.000000  -6.358960  14.674500
                    CHANNELS 3 Zrotation Xrotation Yrotation
                    End Site
                    {
                        OFFSET   0.000000   0.000000   3.913200
                    }
                }
            }
        }
    }
}
MOTION
Frames: 6
Frame Time:   0.016667
 -2.267940  89.226500   2.447860  -0.712076  -5.140180   4.566010   0.813225   4.824440  -0.358551   1.665770   9.643200  -0.790338  -1.877860   0.040541   0.000835  -3.083430   0.081680   6.901450  -7.091940   1.246550   9.504850 -75.879200  11.664400  -1.391940  -1.443070  -0.051470 -16.712800  10.217300  -6.696790   0.236806  40.087600  34.940700 -51.575600 -33.769900  -0.003103  -0.001994 -11.882700  -0.001599  -0.005636 -35.310100  -1.238310   1.747610 -28.905600   0.010228  -0.001721 -20.244600   0.004468  -0.001262 -35.920000  -3.522400   4.839510 -54.011300  -0.006719   0.000000 -35.997100   0.000856  -0.001344 -30.519600  -4.507770   7.594640 -46.234300  -0.000515   0.000199 -30.791300  -0.006608  -0.001504 -30.985900  -4.855890   8.037110 -46.989900  -0.006675  -0.010879 -31.295300   0.001640  -0.008493   8.983500   3.063900   7.768320  68.933900   0.736604  -1.354850   4.365690  -3.798240  16.821300 -14.971700  -3.331160   5.015560 -44.806800  40.274300  78.638000  27.323500   0.000921  -0.002153   8.661770   0.003104   0.001485  33.565800   2.689150   4.052790  27.540600  -0.003828   0.002310  19.288000  -0.000215   0.002747  32.544200  -2.408880  -3.768140  48.935000  -0.003715   0.006130  32.590700  -0.003272   0.000149  31.295500  -2.366170  -3.885270  47.063700  -0.003332   0.000842  31.344400   0.000540   0.004277  34.418000  -2.574590  -3.750530  51.758900  -0.005056   0.006069  34.471500   0.007525   0.007124   5.796810   8.741910   0.586828   0.387637   0.739815  14.309000  -5.849710  -3.590220  -1.755140  -0.000000   0.000000  -0.000000  -0.964671   9.585910  -3.978900   2.135630   0.364565 -15.655200  -0.931050  -4.475400  -2.136090   0.000000   0.000000   0.000000
 -2.267880  89.226400   2.448130  -0.711382  -5.146660   4.566140   0.813259   4.824450  -0.358686   1.665860   9.643210  -0.790599  -1.877860   0.044852   0.000829  -3.084230   0.090489   6.908550  -7.091950   1.246520   9.504840 -75.895200  11.678200  -1.400670  -1.443050  -0.051515 -16.712800  10.201400  -6.696920   0.213267  40.088800  34.935900 -51.585700 -33.769900  -0.003128  -0.002017 -11.883000  -0.001607  -0.005654 -35.318300  -1.227820   1.732310 -28.912100   0.010241  -0.001726 -20.244600   0.004469  -0.001266 -35.933500  -3.522360   4.839470 -54.011200  -0.006740  -0.000027 -35.996900   0.000851  -0.001346 -30.520700  -4.502840   7.585450 -46.234300  -0.000511   0.000218 -30.791200  -0.006640  -0.001513 -30.994300  -4.856260   8.031030 -47.001900  -0.006693  -0.010896 -31.303300   0.001670  -0.008513   8.986660   3.060400   7.773380  68.921500   0.755984  -1.333670   4.354450  -3.797650  16.828300 -14.969500  -3.349120   5.031440 -44.803700  40.279100  78.639400  27.332500   0.000916  -0.002145   8.666290   0.003099   0.001463  33.571000   2.690640   4.052940  27.545000  -0.003821   0.002303  19.288000  -0.000214   0.002748  32.544000  -2.410490  -3.770710  48.935000  -0.003692   0.006105  32.590700  -0.003286   0.000136  31.301000  -2.360680  -3.875440  47.071300  -0.003304   0.000807  31.349500   0.000532   0.004245  34.418300  -2.568210  -3.741250  51.758900  -0.005050   0.006061  34.471500   0.007532   0.007115   5.802200   8.749510   0.586871   0.383123   0.735075  14.309000  -5.849600  -3.585070  -1.755290   0.000000   0.000000  -0.000000  -0.964637   9.590980  -3.978980   2.134290   0.368136 -15.655500  -0.928918  -4.481310  -2.136200  -0.000000   0.000000   0.000000
 -2.267820  89.226400   2.448390  -0.710432  -5.155450   4.566350   0.813430   4.824460  -0.358821   1.666190   9.643230  -0.790860  -1.877870   0.056188   0.000815  -3.085080   0.113492   6.915650  -7.091950   1.246490   9.504840 -75.919500  11.700200  -1.423820  -1.443020  -0.051559 -16.712800  10.183700  -6.697090   0.175219  40.090800  34.936100 -51.600200 -33.769900  -0.003180  -0.002065 -11.883200  -0.001628  -0.005698 -35.329400  -1.216240   1.715240 -28.920900   0.010274  -0.001735 -20.244600   0.004469  -0.001277 -35.947100  -3.522260   4.839410 -54.010900  -0.006793  -0.000065 -35.996700   0.000845  -0.001362 -30.522500  -4.495160   7.571400 -46.234300  -0.000504   0.000268 -30.791100  -0.006722  -0.001534 -31.004300  -4.856680   8.021340 -47.017300  -0.006735  -0.010940 -31.313500   0.001747  -0.008556   8.993670   3.053070   7.778420  68.909200   0.784053  -1.312490   4.334800  -3.793920  16.859700 -14.965200  -3.379010   5.062930 -44.802200  40.285000  78.645800  27.341600   0.000900  -0.002132   8.670820   0.003082   0.001421  33.581900   2.697110   4.054000  27.554200  -0.003801   0.002285  19.288000  -0.000213   0.002750  32.543800  -2.412110  -3.773280  48.935000  -0.003635   0.006046  32.590700  -0.003320   0.000104  31.313700  -2.348750  -3.853980  47.089100  -0.003239   0.000728  31.361300   0.000511   0.004170  34.419500  -2.554430  -3.720960  51.758900  -0.005032   0.006040  34.471500   0.007550   0.007091   5.809930   8.758110   0.586916   0.376618   0.728094  14.309000  -5.849420  -3.577720  -1.755550  -0.000000   0.000000   0.000000  -0.964588   9.596050  -3.979130   2.133360   0.377774 -15.655800  -0.926887  -4.489920  -2.136310  -0.000000   0.000000  -0.000000
 -2.270440  89.226200   2.447400  -0.710148  -5.157530   4.566560   0.813777   4.824730  -0.357885   1.666800   9.643790  -0.789005  -1.875530   0.074218   0.000791  -3.081270   0.149847   6.911120  -7.089960   1.251400   9.503250 -75.935000  11.719700  -1.459620  -1.444430  -0.044321 -16.712900  10.180300  -6.697170   0.145012  40.106300  34.957400 -51.609300 -33.765600  -0.003250  -0.002125 -11.881800  -0.001661  -0.005760 -35.331400  -1.215520   1.714070 -28.922500   0.010323  -0.001745 -20.244900   0.004471  -0.001295 -35.946000  -3.522110   4.839360 -54.010600  -0.006874  -0.000080 -35.996800   0.000864  -0.001421 -30.523000  -4.492530   7.567000 -46.233700  -0.000496   0.000343 -30.791100  -0.006851  -0.001564 -31.005600  -4.855960   8.017920 -47.019500  -0.006795  -0.011011 -31.315000   0.001864  -0.008616   9.005950   3.041190   7.773000  68.910500   0.799432  -1.324020   4.314980  -3.782010  16.915500 -14.961200  -3.399130   5.099790 -44.807900  40.282900  78.654600  27.323500   0.000867  -0.002124   8.661780   0.003053   0.001379  33.591700   2.711050   4.070550  27.563000  -0.003767   0.002260  19.292400  -0.000210   0.002755  32.553300  -2.398880  -3.751290  48.947800  -0.003548   0.005956  32.599300  -0.003373   0.000054  31.331200  -2.332660  -3.825050  47.113600  -0.003146   0.000612  31.377600   0.000481   0.004059  34.425000  -2.535950  -3.693510  51.762600  -0.005004   0.006007  34.474000   0.007578   0.007051   5.813340   8.758780   0.582343   0.373634   0.725671  14.313000  -5.849210  -3.575090  -1.755860  -0.000000   0.000000   0.000000  -0.962497   9.586780  -3.984460   2.134880   0.391715 -15.652800  -0.928823  -4.492310  -2.136220   0.000000   0.000000  -0.000000
 -2.276330  89.226100   2.445630  -0.710018  -5.158590   4.566700   0.813967   4.825220  -0.353782   1.666850   9.644790  -0.780777  -1.867080   0.096728   0.000761  -3.067390   0.195236   6.897820  -7.080040   1.264460   9.496830 -75.946100  11.730800  -1.507350  -1.445940   0.006346 -16.713500  10.178500  -6.697210   0.120739  40.136700  35.001800 -51.638800 -33.756700  -0.003329  -0.002188 -11.878300  -0.001700  -0.005838 -35.334100  -1.214790   1.712890 -28.924600   0.010385  -0.001757 -20.247200   0.004472  -0.001317 -35.944900  -3.521940   4.839320 -54.010300  -0.006976  -0.000092 -35.997100   0.000897  -0.001508 -30.524700  -4.485820   7.555710 -46.233200  -0.000485   0.000438 -30.791300  -0.007013  -0.001601 -31.008000  -4.850800   8.008310 -47.021700  -0.006868  -0.011097 -31.316500   0.002008  -0.008687   9.014790   3.033220   7.759780  68.916000   0.806115  -1.356850   4.286870  -3.735470  17.016400 -14.955800  -3.426660   5.140490 -44.821500  40.280100  78.679400  27.293200   0.000826  -0.002115   8.646600   0.003015   0.001326  33.609100   2.728890   4.097400  27.578300  -0.003727   0.002228  19.304800  -0.000208   0.002762  32.571500  -2.377130  -3.714790  48.972900  -0.003447   0.005851  32.616000  -0.003439  -0.000000  31.353300  -2.314640  -3.792320  47.144900  -0.003038   0.000482  31.398500   0.000443   0.003932  34.435900  -2.515320  -3.662400  51.774500  -0.004967   0.005964  34.481800   0.007615   0.007000   5.817160   8.759460   0.575536   0.371586   0.721845  14.319000  -5.848980  -3.572500  -1.756040  -0.000000   0.000000  -0.000000  -0.957832   9.570310  -3.996380   2.138810   0.413123 -15.646500  -0.933529  -4.496880  -2.135500  -0.000000   0.000000  -0.000000
 -2.284230  89.226000   2.443800  -0.711535  -5.161310   4.566700   0.813852   4.825640  -0.344929   1.666110   9.645760  -0.762998  -1.851890   0.122515   0.000726  -3.042440   0.247341   6.874480  -7.058470   1.285880   9.483210 -75.945300  11.725200  -1.571780  -1.449840   0.124464 -16.720700  10.185500  -6.696730   0.114568  40.179500  35.064100 -51.714500 -33.744200  -0.003413  -0.002237 -11.872200  -0.001741  -0.005931 -35.352400  -1.204930   1.697870 -28.939500   0.010456  -0.001774 -20.257600   0.004471  -0.001340 -35.966500  -3.521760   4.839340 -54.010000  -0.007090  -0.000108 -36.004900   0.000930  -0.001600 -30.533100  -4.467270   7.522570 -46.240700  -0.000471   0.000548 -30.796400  -0.007196  -0.001645 -31.017600  -4.837630   7.983040 -47.033300  -0.006950  -0.011189 -31.324200   0.002171  -0.008769   9.014440   3.038060   7.740010  68.932500   0.791476  -1.407600   4.253260  -3.637520  17.181100 -14.942400  -3.478120   5.189210 -44.818200  40.288700  78.755500  27.262200   0.000784  -0.002099   8.631080   0.002969   0.001252  33.647000   2.752930   4.126080  27.610500  -0.003687   0.002188  19.327400  -0.000211   0.002767  32.597000  -2.356270  -3.678710  49.009100  -0.003343   0.005744  32.640000  -0.003510  -0.000040  31.383000  -2.294040  -3.753790  47.188300  -0.002928   0.000359  31.427400   0.000399   0.003808  34.456800  -2.491880  -3.625580  51.803200  -0.004927   0.005916  34.500900   0.007660   0.006943   5.823470   8.765440   0.571179   0.370086   0.711625  14.323100  -5.849940  -3.567230  -1.756020  -0.000000   0.000000   0.000000  -0.951909   9.550780  -4.014270   2.148800   0.456350 -15.637400  -0.939448  -4.515260  -2.130150   0.000000   0.000000   0.000000
